<?xml version="1.0" encoding="UTF-8" standalone="no"?>
<svg
   xmlns:dc="http://purl.org/dc/elements/1.1/"
   xmlns:cc="http://creativecommons.org/ns#"
   xmlns:rdf="http://www.w3.org/1999/02/22-rdf-syntax-ns#"
   xmlns:svg="http://www.w3.org/2000/svg"
   xmlns="http://www.w3.org/2000/svg"
   xmlns:sodipodi="http://sodipodi.sourceforge.net/DTD/sodipodi-0.dtd"
   xmlns:inkscape="http://www.inkscape.org/namespaces/inkscape"
   id="svg"
   version="1.1"
   width="400"
   height="44"
   display="block"
   inkscape:version="0.48.4 r9939"
   sodipodi:docname="optimised.svg"
   style="display:block">
  <metadata
     id="metadata13">
    <rdf:RDF>
      <cc:Work
         rdf:about="">
        <dc:format>image/svg+xml</dc:format>
        <dc:type
           rdf:resource="http://purl.org/dc/dcmitype/StillImage" />
        <dc:title></dc:title>
      </cc:Work>
    </rdf:RDF>
  </metadata>
  <defs
     id="defs11" />
  <sodipodi:namedview
     pagecolor="#ffffff"
     bordercolor="#666666"
     borderopacity="1"
     objecttolerance="10"
     gridtolerance="10"
     guidetolerance="10"
     inkscape:pageopacity="0"
     inkscape:pageshadow="2"
     inkscape:window-width="1920"
     inkscape:window-height="1140"
     id="namedview9"
     showgrid="false"
     fit-margin-top="0"
     fit-margin-left="0"
     fit-margin-right="0"
     fit-margin-bottom="0"
     inkscape:zoom="1.372"
     inkscape:cx="479.96661"
     inkscape:cy="-6.4088896"
     inkscape:window-x="0"
     inkscape:window-y="27"
     inkscape:window-maximized="1"
     inkscape:current-layer="svg" />
  <g
     id="svgg"
     transform="translate(-0.07359009,0.04843981)">
    <path
       id="path0"
       d=""
       inkscape:connector-curvature="0"
       style="fill:#000000;fill-rule:evenodd;stroke:none" />
    <path
       id="path1"
       d="m 379.032,0.66 c -5.32,1.633 -8.638,6.116 -8.63,11.66 0.008,5.476 3.858,8.947 13.398,12.079 7.751,2.544 9.6,4.064 9.6,7.893 0,5.918 -9.792,7.603 -19.252,3.313 -3.505,-1.589 -3.348,-1.69 -3.348,2.166 l 0,3.372 2.3,0.861 c 4.793,1.796 6.753,2.093 12.478,1.894 10.388,-0.362 14.394,-3.619 14.413,-11.719 0.018,-7.309 -2.923,-10.369 -13.791,-14.351 -6.016,-2.204 -6.217,-2.294 -7.453,-3.334 -2.297,-1.933 -1.233,-5.787 2.044,-7.402 2.829,-1.395 9.239,-1.265 12.809,0.259 4.34,1.852 4,1.998 4,-1.719 l 0,-3.26 -1.712,-0.734 C 391.88,-0.08 383.102,-0.589 379.032,0.66 M 124.4,22 l 0,21.6 3.4,0 3.4,0 0,-16.27 0,-16.271 2.153,2.878 c 1.184,1.583 2.6,3.325 3.146,3.871 0.546,0.546 1.508,1.758 2.137,2.692 2.988,4.438 6.396,8.699 6.95,8.688 0.587,-0.011 2.223,-2.048 5.904,-7.352 0.93,-1.34 2.201,-2.976 2.826,-3.636 1.274,-1.345 4.511,-5.574 5.206,-6.8 0.344,-0.606 0.457,3.191 0.466,15.7 l 0.012,16.5 3.4,0 3.4,0 0,-21.6 0,-21.6 -3.739,0 -3.74,0 -2.76,3.454 c -1.519,1.9 -3.443,4.375 -4.277,5.5 -4.521,6.102 -6.5,8.646 -6.725,8.646 -0.138,0 -1.358,-1.485 -2.711,-3.3 -3.166,-4.245 -5.851,-7.772 -8.682,-11.4 l -2.263,-2.9 -3.751,0 -3.752,0 0,21.6 m 50.8,0 0,21.6 3.2,0 3.2,0 0,-21.6 0,-21.6 -3.2,0 -3.2,0 0,21.6 m 14.8,0 0,21.6 3.4,0 3.4,0 0,-8 0,-8 4.508,0 4.508,0 2.43,3.7 c 1.337,2.035 3.643,5.635 5.124,8 l 2.694,4.3 3.968,0 c 2.454,0 3.968,-0.157 3.968,-0.412 0,-0.408 -4.508,-7.453 -5.752,-8.988 -0.356,-0.44 -1.627,-2.326 -2.824,-4.191 l -2.177,-3.391 2.174,-1.166 C 220.518,22.717 222.2,19.77 222.2,13.572 222.2,3.027 217.844,0.4 200.358,0.4 L 190,0.4 190,22 M 243.285,1.085 c -0.197,0.393 -1.09,2.605 -1.983,4.915 -3.964,10.252 -4.595,11.823 -4.899,12.2 -0.178,0.22 -2.258,5.44 -4.623,11.6 -2.364,6.16 -4.542,11.555 -4.84,11.989 -1.131,1.652 -0.773,1.848 3.148,1.726 l 3.689,-0.115 0.736,-2 c 0.405,-1.1 1.239,-3.08 1.855,-4.4 0.616,-1.32 1.339,-3.075 1.607,-3.9 l 0.487,-1.5 8.578,0 c 8.52,0 8.58,0.006 8.944,0.9 0.201,0.495 1.211,3.195 2.243,6 l 1.878,5.1 3.774,0 c 3.73,0 3.772,-0.011 3.497,-0.9 -0.474,-1.533 -3.43,-8.877 -3.744,-9.3 -0.163,-0.22 -1.304,-3.01 -2.535,-6.2 -1.23,-3.19 -3.071,-7.96 -4.091,-10.6 -1.02,-2.64 -2.199,-5.52 -2.621,-6.4 -0.422,-0.88 -1.471,-3.4 -2.332,-5.6 l -1.564,-4 -3.422,-0.115 c -2.957,-0.1 -3.471,-0.018 -3.782,0.6 M 271.2,22 l 0,21.6 3.396,0 3.395,0 0.105,-16.451 0.104,-16.45 1.347,2.078 c 0.74,1.143 1.661,2.381 2.045,2.751 0.385,0.37 2.449,3.282 4.588,6.472 2.139,3.19 4.116,5.98 4.394,6.2 0.278,0.22 2.231,2.963 4.341,6.095 2.11,3.132 4.516,6.507 5.346,7.5 l 1.508,1.805 3.516,0 3.515,0 0,-21.6 0,-21.6 -3.2,0 -3.2,0 0,16.456 0,16.456 -1.051,-1.556 C 300.771,30.9 300.167,30.11 300.006,30 c -0.161,-0.11 -2.052,-2.81 -4.204,-6 -2.151,-3.19 -4.292,-6.218 -4.757,-6.728 -0.465,-0.511 -2.555,-3.42 -4.645,-6.465 -2.09,-3.044 -4.61,-6.627 -5.6,-7.96 L 279,0.421 275.1,0.411 271.2,0.4 l 0,21.6 m 44,-18.6 0,3 7.4,0 7.4,0 0,18.6 0,18.6 3.4,0 3.4,0 0,-18.6 0,-18.6 7.2,0 7.2,0 0,-3 0,-3 -18,0 -18,0 0,3 m 42,18.6 0,21.6 3.6,0 3.6,0 0,-21.6 0,-21.6 -3.6,0 -3.6,0 0,21.6 M 27.295,5.8 C 23.017,6.454 14.449,9.2 12.4,10.574 c -0.77,0.517 -2.3,1.428 -3.4,2.025 -4.24,2.302 -9.515,6.619 -8.873,7.261 0.147,0.148 1.698,-0.403 3.445,-1.223 10.41,-4.885 28.159,-3.286 34.95,3.148 0.483,0.458 1.723,1.507 2.756,2.332 l 1.878,1.5 3.722,-1.963 c 2.047,-1.08 5.967,-3.242 8.712,-4.805 2.744,-1.563 5.174,-2.904 5.4,-2.98 C 62.11,15.491 55.102,10.231 50.998,8.37 44.922,5.615 35.316,4.573 27.295,5.8 m 183.159,0.981 c 6.406,1.899 6.678,11.456 0.386,13.564 -0.789,0.264 -4.021,0.455 -7.7,0.455 l -6.34,0 0,-7.457 0,-7.458 6.1,0.233 c 3.355,0.128 6.754,0.426 7.554,0.663 m 38.842,8.518 c 2.956,7.976 3.611,9.927 3.404,10.134 -0.104,0.104 -2.811,0.139 -6.015,0.078 l -5.827,-0.111 1.906,-5.2 c 1.048,-2.86 2.384,-6.24 2.97,-7.512 0.587,-1.271 1.066,-2.516 1.066,-2.767 0,-1.016 0.627,0.335 2.496,5.378 m -184.14,6.014 c -1.652,1.113 -9.231,5.377 -12.753,7.175 -3.376,1.723 -3.366,1.841 0.355,4.284 15.126,9.931 40.36,6.847 54.781,-6.695 2.684,-2.521 2.126,-2.585 -2.939,-0.334 -10.264,4.56 -27.532,2.661 -35.338,-3.885 -2.041,-1.713 -2.318,-1.749 -4.106,-0.545"
       inkscape:connector-curvature="0"
       style="fill:#ffffff;fill-rule:evenodd;stroke:none" />
    <path
       id="path2"
       d=""
       inkscape:connector-curvature="0"
       style="fill:#800000;fill-rule:evenodd;stroke:none" />
    <path
       id="path3"
       d="m 90.2,7.073 c -2.462,0.213 -9.324,1.348 -12,1.985 -2.421,0.576 -5.173,1.55 -11.4,4.035 -5.176,2.067 -5.6,2.271 -5.602,2.705 -10e-4,0.221 -1.306,1.075 -2.9,1.898 -1.594,0.822 -5.418,2.934 -8.498,4.692 -3.08,1.758 -5.87,3.197 -6.2,3.198 -0.33,0.001 -2.94,1.161 -5.8,2.577 -8.345,4.135 -11.965,5.749 -15.285,6.819 C 18.717,36.206 12.055,37.6 10.006,37.6 7.878,37.6 6,38.028 6,38.512 c 0,0.664 13.51,0.032 19,-0.888 7.565,-1.268 11.931,-2.569 17.708,-5.275 1.819,-0.852 3.409,-1.549 3.532,-1.549 0.694,0 15.025,-7.644 16.16,-8.619 1.659,-1.426 17.396,-9.125 20.4,-9.98 0.55,-0.156 1.372,-0.518 1.827,-0.804 1.88,-1.181 10.054,-3.085 15.469,-3.602 1.482,-0.142 2.798,-0.424 2.923,-0.626 C 103.234,6.821 93.909,6.752 90.2,7.073"
       inkscape:connector-curvature="0"
       style="fill:#df2c3a;fill-rule:evenodd;stroke:none" />
    <path
       id="path4"
       d="m 58.7,17.026 c -1.045,0.544 -1.9,1.079 -1.9,1.188 0,0.179 3.96,-1.691 4.367,-2.062 0.495,-0.451 -0.806,0.01 -2.467,0.874 m -13.7,7.6 c -1.1,0.53 -1.768,0.966 -1.484,0.969 0.586,0.006 3.684,-1.51 3.684,-1.803 0,-0.241 0.156,-0.3 -2.2,0.834"
       inkscape:connector-curvature="0"
       style="fill:#ec8189;fill-rule:evenodd;stroke:none" />
  </g>
</svg>
