<?xml version="1.0" standalone="no"?>
<!DOCTYPE svg PUBLIC "-//W3C//DTD SVG 20010904//EN"
 "http://www.w3.org/TR/2001/REC-SVG-20010904/DTD/svg10.dtd">
<svg version="1.0" xmlns="http://www.w3.org/2000/svg"
 width="180.000000pt" height="180.000000pt" viewBox="0 0 180.000000 180.000000"
 preserveAspectRatio="xMidYMid meet">
<metadata>
Created by potrace 1.11, written by Peter Selinger 2001-2013
</metadata>
<g transform="translate(0.000000,180.000000) scale(0.100000,-0.100000)"
fill="#000000" stroke="none">
<path d="M410 1139 c-133 -33 -264 -97 -350 -170 -30 -26 -17 -33 15 -8 32 24
155 46 245 44 158 -5 222 -26 348 -114 45 -32 59 -47 50 -53 -88 -60 -341
-162 -447 -180 -39 -7 -71 -16 -71 -20 0 -4 6 -6 13 -3 6 2 51 6 98 9 223 15
381 72 734 268 87 48 215 112 280 139 37 16 80 32 90 34 6 2 39 10 74 20 36 9
73 17 82 18 10 1 15 5 13 9 -3 4 -19 6 -37 3 -18 -2 -60 -7 -94 -9 -102 -8
-268 -52 -368 -97 -56 -24 -95 -33 -95 -21 0 18 -128 93 -202 119 -98 34 -267
39 -378 12z"/>
<path d="M1610 1130 c-9 -6 -10 -10 -3 -10 6 0 15 5 18 10 8 12 4 12 -15 0z"/>
<path d="M1035 880 c-27 -17 -85 -49 -129 -72 l-78 -41 23 -18 c73 -56 252
-113 354 -112 40 0 168 16 205 25 112 28 258 102 328 167 28 25 31 29 10 17
-15 -8 -59 -25 -99 -36 -150 -41 -374 -9 -492 71 -23 16 -49 29 -57 28 -8 0
-37 -13 -65 -29z"/>
</g>
</svg>
